<?xml version="1.0" standalone="no"?>
<!DOCTYPE svg PUBLIC "-//W3C//DTD SVG 20010904//EN"
 "http://www.w3.org/TR/2001/REC-SVG-20010904/DTD/svg10.dtd">
<svg version="1.0" xmlns="http://www.w3.org/2000/svg"
 width="456.000000pt" height="456.000000pt" viewBox="0 0 456.000000 456.000000"
 preserveAspectRatio="xMidYMid meet">

<g transform="translate(0.000000,456.000000) scale(0.100000,-0.100000)"
fill="#000000" stroke="none">
<path d="M2720 3774 c-228 -45 -384 -127 -532 -283 -152 -159 -231 -337 -253
-567 -8 -78 7 -217 31 -304 l16 -55 -545 -541 c-299 -297 -561 -562 -581 -588
-77 -101 -96 -260 -46 -388 65 -166 269 -282 439 -251 140 26 116 7 737 625
l571 569 54 -15 c228 -65 496 -30 702 90 204 119 353 308 423 539 25 81 28
106 28 245 1 162 -11 235 -56 342 l-20 47 -122 -111 c-66 -61 -143 -128 -169
-149 -119 -95 -274 -87 -391 21 -65 60 -99 134 -99 218 -1 102 28 155 160 293
61 63 124 130 141 150 l32 37 -58 21 c-113 41 -176 53 -307 56 -71 2 -141 1
-155 -1z"/>
</g>
</svg>
