<?xml version="1.0" standalone="no"?>
<!DOCTYPE svg PUBLIC "-//W3C//DTD SVG 20010904//EN"
 "http://www.w3.org/TR/2001/REC-SVG-20010904/DTD/svg10.dtd">
<svg version="1.0" xmlns="http://www.w3.org/2000/svg"
 width="456.000000pt" height="456.000000pt" viewBox="0 0 456.000000 456.000000"
 preserveAspectRatio="xMidYMid meet">

<g transform="translate(0.000000,456.000000) scale(0.100000,-0.100000)"
fill="#000000" stroke="none">
<path d="M2508 3215 c-109 -27 -187 -73 -273 -160 -80 -80 -112 -132 -150
-240 -21 -60 -26 -248 -7 -310 l12 -40 -364 -365 c-336 -338 -365 -369 -381
-419 -43 -132 24 -278 151 -327 55 -21 163 -15 214 11 19 10 194 176 388 369
328 325 356 351 385 349 238 -19 289 -14 405 38 207 93 336 297 335 529 -1 91
-32 230 -51 230 -4 0 -51 -41 -105 -90 -55 -50 -113 -94 -134 -101 -121 -40
-253 59 -252 191 0 75 -1 74 172 256 l39 42 -64 22 c-82 28 -239 36 -320 15z"/>
</g>
</svg>
